<svg width="31" height="40" viewBox="0 0 31 40" fill="none" xmlns="http://www.w3.org/2000/svg">
<rect width="8.37224" height="0.15502" transform="matrix(0.968648 0.248439 -0.269568 0.962981 2.90857 15.6537)" fill="white"/>
<rect width="3.18209" height="0.156969" transform="matrix(-0.820985 0.57095 -0.604594 -0.796534 13.786 16.0771)" fill="white"/>
<path fill-rule="evenodd" clip-rule="evenodd" d="M30.5156 18.5457C30.3542 19.0609 30.1927 19.5245 30.0312 19.9366V20.0139L29.9505 20.0912C29.7352 20.6579 29.52 21.1472 29.3047 21.5594C29.3047 21.6109 29.2778 21.6367 29.224 21.6367C28.9549 22.1518 28.6589 22.6412 28.3359 23.1049C28.013 23.5685 27.6632 24.0321 27.2865 24.4958L27.2461 24.5344L27.2057 24.5731C26.8828 24.9337 26.5061 25.2943 26.0755 25.6549L25.9544 25.7322C25.8737 25.7837 25.8199 25.8223 25.793 25.8481C25.7661 25.8738 25.7257 25.9253 25.6719 26.0026C25.6181 26.0799 25.5642 26.1443 25.5104 26.1958C25.4566 26.1958 25.4028 26.2087 25.349 26.2344C25.2951 26.2602 25.2682 26.2988 25.2682 26.3504C24.7839 26.711 24.5282 26.9041 24.5013 26.9299C24.4744 26.9557 24.4206 26.9943 24.3398 27.0458L24.2188 27.1231C23.7344 27.4837 23.3846 27.8958 23.1693 28.3595C22.954 28.8231 22.7387 29.158 22.5234 29.364C22.3082 29.5701 21.9045 29.6731 21.3125 29.6731H9.6875C9.09548 29.6731 8.69184 29.5701 8.47656 29.364C8.26128 29.158 8.03255 28.8231 7.79037 28.3595C7.54817 27.8958 7.21181 27.4837 6.78125 27.1231C6.72743 27.1231 6.67361 27.0973 6.61979 27.0458L6.4987 26.9299C6.47179 26.9041 6.21615 26.711 5.73177 26.3504L5.48958 26.1958L5.28776 26.0026L5.16667 25.8867L4.92448 25.6549L3.79427 24.5731L3.75391 24.5344L3.71354 24.4958C3.3368 24.0321 2.98698 23.5685 2.66406 23.1049C2.34114 22.6412 2.04514 22.1518 1.77604 21.6367C1.72222 21.6367 1.69531 21.6109 1.69531 21.5594C1.48003 21.1472 1.26476 20.6579 1.04948 20.0912C0.99566 20.0912 0.96875 20.0654 0.96875 20.0139V19.9366C0.807291 19.5245 0.645834 19.0609 0.484375 18.5457L0.44401 18.4298L0.403646 18.3139C0.296006 17.9018 0.215278 17.4381 0.161458 16.923C0.161458 16.8714 0.148004 16.807 0.121094 16.7298C0.0941839 16.6525 0.0807292 16.5881 0.0807292 16.5366C0.0269094 15.9699 0 15.4032 0 14.8366C0 10.7668 1.50693 7.27663 4.52083 4.36597C7.53474 1.45531 11.181 0 15.4596 0C19.7383 0 23.398 1.45531 26.4388 4.36597C29.4796 7.27663 31 10.7668 31 14.8366C31 15.4032 30.9731 15.9699 30.9193 16.5366C30.8654 16.5881 30.8385 16.6525 30.8385 16.7298V16.923C30.7309 17.4381 30.6502 17.9018 30.5964 18.3139C30.5425 18.3139 30.5156 18.3396 30.5156 18.3912V18.5457ZM14.6226 7.40791C14.6226 8.17036 13.9792 8.78845 13.1855 8.78845C12.3918 8.78845 11.7484 8.17036 11.7484 7.40791C11.7484 6.64545 12.3918 6.02736 13.1855 6.02736C13.9792 6.02736 14.6226 6.64545 14.6226 7.40791ZM5.58932 12.6671C5.58932 13.4295 4.94589 14.0476 4.15217 14.0476C3.35846 14.0476 2.71503 13.4295 2.71503 12.6671C2.71503 11.9046 3.35846 11.2865 4.15217 11.2865C4.94589 11.2865 5.58932 11.9046 5.58932 12.6671ZM7.02635 18.1235C7.82006 18.1235 8.46349 17.5054 8.46349 16.743C8.46349 15.9805 7.82006 15.3624 7.02635 15.3624C6.23264 15.3624 5.58921 15.9805 5.58921 16.743C5.58921 17.5054 6.23264 18.1235 7.02635 18.1235ZM8.80552 13.1273C8.80552 13.6356 8.37656 14.0476 7.84742 14.0476C7.31828 14.0476 6.88933 13.6356 6.88933 13.1273C6.88933 12.619 7.31828 12.2069 7.84742 12.2069C8.37656 12.2069 8.80552 12.619 8.80552 13.1273ZM8.5319 10.8921C9.06104 10.8921 9.49 10.4801 9.49 9.97175C9.49 9.46345 9.06104 9.05139 8.5319 9.05139C8.00276 9.05139 7.57381 9.46345 7.57381 9.97175C7.57381 10.4801 8.00276 10.8921 8.5319 10.8921ZM6.75246 9.84027C6.75246 10.2033 6.44606 10.4977 6.06811 10.4977C5.69015 10.4977 5.38375 10.2033 5.38375 9.84027C5.38375 9.4772 5.69015 9.18287 6.06811 9.18287C6.44606 9.18287 6.75246 9.4772 6.75246 9.84027ZM2.78326 16.4143C3.16122 16.4143 3.46761 16.12 3.46761 15.7569C3.46761 15.3939 3.16122 15.0995 2.78326 15.0995C2.4053 15.0995 2.09891 15.3939 2.09891 15.7569C2.09891 16.12 2.4053 16.4143 2.78326 16.4143ZM9.90069 14.8366C9.90069 15.1997 9.5943 15.494 9.21634 15.494C8.83839 15.494 8.53199 15.1997 8.53199 14.8366C8.53199 14.4735 8.83839 14.1792 9.21634 14.1792C9.5943 14.1792 9.90069 14.4735 9.90069 14.8366ZM11.4064 11.1551C11.7844 11.1551 12.0908 10.8608 12.0908 10.4977C12.0908 10.1346 11.7844 9.84029 11.4064 9.84029C11.0284 9.84029 10.7221 10.1346 10.7221 10.4977C10.7221 10.8608 11.0284 11.1551 11.4064 11.1551ZM10.8589 7.86816C10.8589 8.23123 10.5525 8.52556 10.1745 8.52556C9.79657 8.52556 9.49017 8.23123 9.49017 7.86816C9.49017 7.50508 9.79657 7.21075 10.1745 7.21075C10.5525 7.21075 10.8589 7.50508 10.8589 7.86816ZM13.3223 16.8088C13.7002 16.8088 14.0066 16.5144 14.0066 16.1514C14.0066 15.7883 13.7002 15.494 13.3223 15.494C12.9443 15.494 12.6379 15.7883 12.6379 16.1514C12.6379 16.5144 12.9443 16.8088 13.3223 16.8088ZM17.7025 17.4662C17.7025 17.8293 17.3961 18.1236 17.0182 18.1236C16.6402 18.1236 16.3338 17.8293 16.3338 17.4662C16.3338 17.1032 16.6402 16.8088 17.0182 16.8088C17.3961 16.8088 17.7025 17.1032 17.7025 17.4662ZM14.6912 23.6458C15.0692 23.6458 15.3756 23.3515 15.3756 22.9884C15.3756 22.6253 15.0692 22.331 14.6912 22.331C14.3133 22.331 14.0069 22.6253 14.0069 22.9884C14.0069 23.3515 14.3133 23.6458 14.6912 23.6458ZM23.1771 21.1477C23.1771 21.5107 22.8707 21.8051 22.4927 21.8051C22.1147 21.8051 21.8083 21.5107 21.8083 21.1477C21.8083 20.7846 22.1147 20.4903 22.4927 20.4903C22.8707 20.4903 23.1771 20.7846 23.1771 21.1477ZM25.7777 20.4903C26.1556 20.4903 26.462 20.1959 26.462 19.8329C26.462 19.4698 26.1556 19.1755 25.7777 19.1755C25.3997 19.1755 25.0933 19.4698 25.0933 19.8329C25.0933 20.1959 25.3997 20.4903 25.7777 20.4903ZM23.9983 11.5496C23.9983 11.9127 23.6919 12.207 23.3139 12.207C22.936 12.207 22.6296 11.9127 22.6296 11.5496C22.6296 11.1865 22.936 10.8922 23.3139 10.8922C23.6919 10.8922 23.9983 11.1865 23.9983 11.5496ZM20.1658 10.2347C20.5437 10.2347 20.8501 9.94035 20.8501 9.57728C20.8501 9.2142 20.5437 8.91987 20.1658 8.91987C19.7878 8.91987 19.4814 9.2142 19.4814 9.57728C19.4814 9.94035 19.7878 10.2347 20.1658 10.2347ZM17.4287 10.6291C17.4287 11.1374 16.9997 11.5495 16.4706 11.5495C15.9414 11.5495 15.5125 11.1374 15.5125 10.6291C15.5125 10.1208 15.9414 9.70878 16.4706 9.70878C16.9997 9.70878 17.4287 10.1208 17.4287 10.6291ZM17.8393 8.78848C18.3684 8.78848 18.7974 8.37642 18.7974 7.86812C18.7974 7.35981 18.3684 6.94775 17.8393 6.94775C17.3102 6.94775 16.8812 7.35981 16.8812 7.86812C16.8812 8.37642 17.3102 8.78848 17.8393 8.78848ZM26.8726 10.6291C26.8726 11.1374 26.4437 11.5495 25.9146 11.5495C25.3854 11.5495 24.9565 11.1374 24.9565 10.6291C24.9565 10.1208 25.3854 9.70878 25.9146 9.70878C26.4437 9.70878 26.8726 10.1208 26.8726 10.6291ZM22.6297 19.044C23.1589 19.044 23.5878 18.6319 23.5878 18.1236C23.5878 17.6153 23.1589 17.2032 22.6297 17.2032C22.1006 17.2032 21.6716 17.6153 21.6716 18.1236C21.6716 18.6319 22.1006 19.044 22.6297 19.044ZM25.5042 14.3107C25.5042 14.819 25.0752 15.2311 24.5461 15.2311C24.0169 15.2311 23.588 14.819 23.588 14.3107C23.588 13.8024 24.0169 13.3903 24.5461 13.3903C25.0752 13.3903 25.5042 13.8024 25.5042 14.3107ZM10.9957 18.6496C11.5248 18.6496 11.9538 18.2375 11.9538 17.7292C11.9538 17.2209 11.5248 16.8088 10.9957 16.8088C10.4665 16.8088 10.0376 17.2209 10.0376 17.7292C10.0376 18.2375 10.4665 18.6496 10.9957 18.6496ZM15.1016 19.1754C15.1016 19.6837 14.6727 20.0958 14.1435 20.0958C13.6144 20.0958 13.1854 19.6837 13.1854 19.1754C13.1854 18.6671 13.6144 18.2551 14.1435 18.2551C14.6727 18.2551 15.1016 18.6671 15.1016 19.1754ZM19.8923 18.3866C20.4214 18.3866 20.8503 17.9745 20.8503 17.4662C20.8503 16.9579 20.4214 16.5459 19.8923 16.5459C19.3631 16.5459 18.9342 16.9579 18.9342 17.4662C18.9342 17.9745 19.3631 18.3866 19.8923 18.3866ZM17.2916 14.1792C17.2916 14.6875 16.8626 15.0995 16.3335 15.0995C15.8043 15.0995 15.3754 14.6875 15.3754 14.1792C15.3754 13.6709 15.8043 13.2588 16.3335 13.2588C16.8626 13.2588 17.2916 13.6709 17.2916 14.1792ZM28.1042 14.1791C28.6334 14.1791 29.0623 13.7671 29.0623 13.2588C29.0623 12.7505 28.6334 12.3384 28.1042 12.3384C27.5751 12.3384 27.1462 12.7505 27.1462 13.2588C27.1462 13.7671 27.5751 14.1791 28.1042 14.1791ZM28.4465 17.269C28.4465 18.0314 27.8031 18.6495 27.0094 18.6495C26.2157 18.6495 25.5722 18.0314 25.5722 17.269C25.5722 16.5065 26.2157 15.8884 27.0094 15.8884C27.8031 15.8884 28.4465 16.5065 28.4465 17.269ZM23.1771 9.97176C23.8952 9.97176 24.4774 9.41254 24.4774 8.7227C24.4774 8.03286 23.8952 7.47363 23.1771 7.47363C22.459 7.47363 21.8768 8.03286 21.8768 8.7227C21.8768 9.41254 22.459 9.97176 23.1771 9.97176ZM22.2191 13.9161C22.2191 14.8601 21.4225 15.6254 20.4398 15.6254C19.4571 15.6254 18.6605 14.8601 18.6605 13.9161C18.6605 12.9722 19.4571 12.2069 20.4398 12.2069C21.4225 12.2069 22.2191 12.9722 22.2191 13.9161ZM11.68 14.968C12.6627 14.968 13.4594 14.2027 13.4594 13.2588C13.4594 12.3148 12.6627 11.5495 11.68 11.5495C10.6973 11.5495 9.90072 12.3148 9.90072 13.2588C9.90072 14.2027 10.6973 14.968 11.68 14.968ZM20.3028 21.1477C20.3028 22.2369 19.3836 23.1199 18.2498 23.1199C17.1159 23.1199 16.1967 22.2369 16.1967 21.1477C16.1967 20.0585 17.1159 19.1755 18.2498 19.1755C19.3836 19.1755 20.3028 20.0585 20.3028 21.1477Z" fill="white"/>
<rect width="3.12194" height="0.159961" transform="matrix(-0.485597 -0.874183 0.891214 -0.453584 13.6036 16.6238)" fill="white"/>
<rect width="3.2201" height="0.15502" transform="matrix(-0.968648 -0.248438 0.269569 -0.962981 15.9086 14.1521)" fill="white"/>
<rect x="10.9792" y="13.2911" width="3.22917" height="0.154548" transform="rotate(180 10.9792 13.2911)" fill="white"/>
<rect x="9.20312" y="9.89099" width="3.22917" height="0.154549" transform="rotate(180 9.20312 9.89099)" fill="white"/>
<rect width="3.22655" height="0.154684" transform="matrix(-0.991072 -0.133324 0.145268 -0.989392 7.72327 13.1964)" fill="white"/>
<rect width="3.14171" height="0.15899" transform="matrix(-0.618567 -0.785732 0.811034 -0.584999 9.46436 15.2674)" fill="white"/>
<rect width="6.65867" height="0.161166" transform="matrix(0.216781 -0.97622 0.979924 0.199373 7.03027 16.4479)" fill="white"/>
<rect width="4.01846" height="0.161445" transform="matrix(0.0364568 -0.999335 0.999442 0.0334086 16.3149 14.4462)" fill="white"/>
<rect width="2.31824" height="0.161454" transform="matrix(-0.0182323 -0.999834 0.99986 -0.0167058 20.2036 12.365)" fill="white"/>
<rect width="2.4088" height="0.155452" transform="matrix(0.938644 -0.344889 0.372215 0.928147 20.557 9.38431)" fill="white"/>
<rect width="2.3185" height="0.161446" transform="matrix(-0.0546717 0.998504 -0.998744 -0.0500995 23.4747 9.12384)" fill="white"/>
<rect width="2.40881" height="0.155453" transform="matrix(-0.938642 0.344892 -0.372211 -0.928148 25.6204 10.7069)" fill="white"/>
<rect width="2.38658" height="0.15697" transform="matrix(-0.820984 0.570951 -0.604592 -0.796535 23.2275 11.6677)" fill="white"/>
<rect width="2.33304" height="0.160507" transform="matrix(-0.388872 -0.921292 0.932683 -0.360698 24.3553 14.0085)" fill="white"/>
<rect width="2.3616" height="0.15864" transform="matrix(-0.659196 -0.751971 0.779657 -0.626206 26.469 16.4697)" fill="white"/>
<rect width="2.41218" height="0.155221" transform="matrix(-0.954884 0.29698 -0.321436 -0.946931 27.5752 13.5474)" fill="white"/>
<rect width="2.39158" height="0.156629" transform="matrix(-0.849288 -0.52793 0.561428 -0.827525 25.4324 19.9373)" fill="white"/>
<rect width="2.31851" height="0.161435" transform="matrix(0.0546676 -0.998505 0.998744 0.0501032 22.3795 21.0128)" fill="white"/>
<rect width="2.32357" height="0.161115" transform="matrix(-0.234467 -0.972124 0.976442 -0.215782 17.712 19.6152)" fill="white"/>
<rect width="2.42185" height="0.154549" transform="matrix(-0.99986 -0.0167054 0.0182327 -0.999834 19.5347 17.6386)" fill="white"/>
<rect width="2.39322" height="0.15652" transform="matrix(0.858201 -0.513313 0.54664 0.837368 14.5109 19.0171)" fill="white"/>
<rect width="2.31902" height="0.161404" transform="matrix(-0.0910199 -0.995849 0.996512 -0.0834532 14.4757 22.4117)" fill="white"/>
<rect width="2.38657" height="0.15697" transform="matrix(-0.820985 -0.570949 0.604594 -0.796534 20.3878 9.63025)" fill="white"/>
<rect width="2.3706" height="0.15804" transform="matrix(-0.722396 -0.691479 0.722396 -0.691479 15.8956 10.0698)" fill="white"/>
<rect width="2.42111" height="0.154601" transform="matrix(-0.996512 0.0834516 -0.0910217 -0.995849 12.4347 7.78064)" fill="white"/>
<rect width="2.33568" height="0.160336" transform="matrix(0.421747 0.906713 -0.919943 0.392053 10.4797 8.10522)" fill="white"/>
<rect width="2.32279" height="0.161165" transform="matrix(0.21678 0.976221 -0.979923 0.199375 16.5383 15.0004)" fill="white"/>
<path fill-rule="evenodd" clip-rule="evenodd" d="M15.2996 37.246H12.4935H9.6875L14.2573 39.4939C14.6315 39.6438 15.019 39.7187 15.4198 39.7187C15.8207 39.7187 16.2082 39.6438 16.5823 39.4939L21.3125 37.246H18.4263H15.6203H15.2996Z" fill="white"/>
<path fill-rule="evenodd" clip-rule="evenodd" d="M22.8464 34.4641C23.1155 34.2065 23.25 33.8974 23.25 33.5368C23.25 33.1762 23.1289 32.88 22.8867 32.6481C22.6445 32.4163 22.3351 32.3004 21.9583 32.3004H9.04167C8.66493 32.3004 8.35547 32.4163 8.11328 32.6481C7.87109 32.88 7.75 33.1762 7.75 33.5368C7.75 33.8974 7.87109 34.1936 8.11328 34.4254C8.35547 34.6573 8.66493 34.7732 9.04167 34.7732H21.9583C22.3351 34.7732 22.6311 34.6701 22.8464 34.4641Z" fill="white"/>
</svg>
